<svg id="Layer_1" enable-background="new 0 0 512 512" height="512" viewBox="0 0 512 512" width="512" xmlns="http://www.w3.org/2000/svg"><g><g><path d="m471.179 94.32s-17.48 197.75-59.56 410.18c0 0-12.12-.85-31.62-2.64-26.2-2.4-65.74-6.5-107.13-12.5-40.24-5.83-78.29-12.89-104.09-18l185.12-398.89c33.45 5.25 64.09 11.01 85.64 15.29 19.54 3.88 31.64 6.56 31.64 6.56z" fill="#8389aa"/><path d="m471.179 94.32s-17.48 197.75-59.56 410.18c0 0-12.12-.85-31.62-2.64 32.33-195.94 53.17-361.58 59.54-414.1 19.54 3.88 31.64 6.56 31.64 6.56z" fill="#646d91"/><path d="m351.379 466.22s-13.27.98-34.69 2.11c-28.74 1.51-72.16 3.28-117.88 3.28-79.79 0-152.56-5.39-152.56-5.39-12.17-236.55 0-453.34 0-453.34s72.77-5.38 152.56-5.38c45.47 0 88.67 1.75 117.41 3.26 21.7 1.13 35.16 2.12 35.16 2.12s12.17 216.79 0 453.34z" fill="#f4f1e1"/><path d="m351.379 466.22s-13.27.98-34.69 2.11c10.4-240.33 1.71-419.04-.47-457.57 21.7 1.13 35.16 2.12 35.16 2.12s12.17 216.79 0 453.34z" fill="#f4e5cb"/><path d="m294.709 212.7c0 76.98-94.41 103.15-95.88 103.55-.01.01-.02.01-.02.01s-95.89-25.97-95.89-103.56c0-69.64 95.89-60.53 95.89-8.32 0-22.32 17.53-36.76 37.6-40.54 26.87-5.06 58.3 8.99 58.3 48.86z" fill="#ff7878"/><path d="m294.709 212.7c0 76.98-94.41 103.15-95.88 103.55 1.25-.54 61.5-26.77 61.5-103.55 0-29.62-11.13-44.99-23.92-48.86 26.87-5.06 58.3 8.99 58.3 48.86z" fill="#f4536f"/></g><g><path d="m120.911 53.818c-1.272-2.535-3.866-4.135-6.702-4.135s-5.43 1.6-6.702 4.135c-.616 1.227-15.183 30.414-23.641 62.597-1.053 4.006 1.342 8.107 5.348 9.16 4.006 1.049 8.107-1.342 9.16-5.348 1.167-4.44 2.466-8.841 3.835-13.123 5.432-.065 14.417-.128 23.997-.006 1.369 4.281 2.668 8.684 3.836 13.129.885 3.367 3.923 5.596 7.249 5.596.631 0 1.272-.081 1.911-.248 4.006-1.053 6.4-5.154 5.348-9.16-8.458-32.183-23.023-61.37-23.639-62.597zm-13.468 38.238c2.365-6.316 4.711-12.045 6.767-16.834 2.055 4.785 4.4 10.512 6.763 16.827-4.989-.03-9.649-.019-13.53.007z"/><path d="m283.418 353.284c-2.836 0-5.43 1.6-6.702 4.135-.616 1.227-15.182 30.414-23.64 62.597-1.053 4.006 1.342 8.107 5.348 9.16 4.005 1.049 8.107-1.342 9.16-5.348 1.167-4.44 2.466-8.841 3.836-13.123 5.432-.065 14.416-.128 23.996-.006 1.37 4.283 2.67 8.687 3.838 13.129.885 3.367 3.923 5.596 7.249 5.596.631 0 1.272-.081 1.911-.248 4.006-1.053 6.4-5.154 5.348-9.16-8.458-32.184-23.024-61.371-23.641-62.597-1.273-2.535-3.867-4.135-6.703-4.135zm6.764 42.366c-4.989-.031-9.647-.02-13.528.007 2.364-6.314 4.709-12.042 6.765-16.83 2.055 4.786 4.4 10.512 6.763 16.823z"/><path d="m246.991 155.349c-13.847 0-27.604 4.575-37.744 12.551-4.172 3.282-7.668 7.067-10.433 11.241-2.765-4.174-6.261-7.959-10.433-11.241-10.141-7.977-23.897-12.551-37.745-12.551-27.482 0-55.214 17.735-55.214 57.355 0 32.824 16.294 61.941 47.12 84.204 3.354 2.424 8.045 1.67 10.471-1.689 2.425-3.358 1.669-8.046-1.689-10.471-27.14-19.601-40.901-43.84-40.901-72.043 0-19.539 10.532-42.355 40.214-42.355 10.548 0 20.925 3.405 28.471 9.341 5.568 4.38 12.207 12.22 12.207 24.693 0 4.142 3.357 7.5 7.5 7.5s7.5-3.358 7.5-7.5c0-16.499 14.256-34.034 40.677-34.034 10.84 0 20.704 3.539 27.773 9.963 8.255 7.501 12.44 18.4 12.44 32.393 0 29.418-14.909 54.461-44.313 74.433-18.851 12.804-38.021 19.398-44.08 21.293-2.945-.918-8.961-2.935-16.481-6.211-3.799-1.655-8.218.083-9.872 3.879-1.654 3.797.083 8.217 3.88 9.872 11.802 5.142 20.166 7.43 20.517 7.524.642.174 1.301.261 1.96.261s1.318-.087 1.96-.261c1.028-.278 25.461-7.009 50.183-23.704 33.526-22.642 51.248-52.755 51.248-87.087-.002-39.621-27.733-57.356-55.216-57.356z"/><path d="m460.993 188.88c-4.11-.495-7.851 2.427-8.351 6.541-8.929 73.468-24.297 184.795-47.092 301.096-18.538-1.462-73.531-6.159-131.602-14.575-7.852-1.138-15.621-2.323-23.226-3.531 56.601-1.45 100.645-4.667 101.21-4.709 3.77-.279 6.742-3.319 6.937-7.094.829-16.126 1.571-32.68 2.205-49.201.159-4.139-3.067-7.623-7.206-7.782-4.182-.142-7.623 3.069-7.782 7.207-.545 14.195-1.17 28.415-1.861 42.363-19.671 1.292-80.541 4.911-145.411 4.911-64.871 0-125.741-3.619-145.412-4.911-7.109-143.299-5.467-278.44-2.802-367.136.124-4.14-3.132-7.597-7.271-7.722-4.169-.139-7.599 3.131-7.723 7.271-2.714 90.343-4.37 228.738 3.151 375 .194 3.775 3.167 6.815 6.937 7.094.634.047 55.921 4.086 122.283 5.149 25.162 4.973 63.389 12.076 103.819 17.936 71.642 10.383 138.632 15.148 139.3 15.195.178.013.354.019.53.019 3.553 0 6.652-2.51 7.353-6.042 23.595-119.11 39.427-233.63 48.554-308.727.5-4.113-2.429-7.852-6.54-8.352z"/><path d="m472.797 86.996c-.52-.115-51.038-11.25-111.636-20.966-1.185-33.397-2.262-53.002-2.294-53.567-.211-3.76-3.179-6.781-6.935-7.059-.729-.054-73.966-5.404-153.118-5.404-79.153 0-152.39 5.35-153.12 5.404-3.756.278-6.724 3.299-6.935 7.059-.008.162-.919 16.487-1.977 44.437-.157 4.139 3.071 7.622 7.21 7.778 4.147.15 7.622-3.072 7.778-7.211.662-17.46 1.264-30.346 1.623-37.556 19.661-1.291 80.54-4.911 145.421-4.911 64.875 0 125.751 3.619 145.417 4.912 1.618 32.82 8.243 183.547 3.145 358.698-.12 4.141 3.139 7.595 7.279 7.715.074.002.147.003.222.003 4.041 0 7.375-3.216 7.493-7.282 3.525-121.107 1.463-230.591-.692-297.74 46.344 7.505 86.29 15.733 101.417 18.944-.933 9.806-2.941 30.125-6.099 58.07-.466 4.116 2.494 7.83 6.61 8.295.286.032.569.048.851.048 3.766 0 7.011-2.829 7.443-6.658 4.547-40.237 6.727-64.783 6.748-65.026.332-3.753-2.172-7.169-5.851-7.983z"/></g></g></svg>